<?xml version="1.0" encoding="UTF-8" standalone="no"?>
<!-- Created with Inkscape (http://www.inkscape.org/) -->

<svg
   width="300"
   height="300"
   viewBox="0 0 79.374998 79.375"
   version="1.1"
   id="svg1"
   inkscape:version="1.3.2 (091e20e, 2023-11-25, custom)"
   sodipodi:docname="dibujo2.svg"
   inkscape:export-filename="jeroconj042024-v3.png"
   inkscape:export-xdpi="96"
   inkscape:export-ydpi="96"
   xmlns:inkscape="http://www.inkscape.org/namespaces/inkscape"
   xmlns:sodipodi="http://sodipodi.sourceforge.net/DTD/sodipodi-0.dtd"
   xmlns="http://www.w3.org/2000/svg"
   xmlns:svg="http://www.w3.org/2000/svg">
  <sodipodi:namedview
     id="namedview1"
     pagecolor="#505050"
     bordercolor="#eeeeee"
     borderopacity="1"
     inkscape:showpageshadow="0"
     inkscape:pageopacity="0"
     inkscape:pagecheckerboard="0"
     inkscape:deskcolor="#505050"
     inkscape:document-units="mm"
     inkscape:zoom="1.4142136"
     inkscape:cx="160.51324"
     inkscape:cy="140.3607"
     inkscape:window-width="1366"
     inkscape:window-height="715"
     inkscape:window-x="-8"
     inkscape:window-y="-8"
     inkscape:window-maximized="1"
     inkscape:current-layer="g634"
     inkscape:export-bgcolor="#ffffff00" />
  <defs
     id="defs1">
    <inkscape:path-effect
       effect="perspective-envelope"
       up_left_point="44.178182,6.1143555"
       up_right_point="74.01202,6.1143555"
       down_left_point="44.178182,65.783065"
       down_right_point="74.01202,65.783065"
       id="path-effect51"
       is_visible="true"
       lpeversion="1"
       deform_type="perspective"
       horizontal_mirror="false"
       vertical_mirror="false"
       overflow_perspective="true" />
  </defs>
  <g
     inkscape:label="Capa 1"
     inkscape:groupmode="layer"
     id="layer1">
    <rect
       style="display:none;fill:#ffffff;fill-opacity:1;stroke-width:1.13734"
       id="rect1"
       width="79.375"
       height="79.375"
       x="0"
       y="0"
       sodipodi:insensitive="true" />
    <g
       id="g634"
       transform="translate(-1.414142,-1.4136086)">
      <path
         id="path632"
         style="display:none;fill:#000000;fill-opacity:1;stroke:#000000;stroke-width:0.79375;stroke-linejoin:round;stroke-dasharray:none;stroke-opacity:1;paint-order:markers fill stroke"
         d="m 43.65625,27.780733 v 11.410156 0.496094 0.496611 15.378906 c 0,2.198648 -1.770102,3.96875 -3.96875,3.96875 -0.348861,0 -0.685251,-0.04904 -1.007174,-0.132808 0.44434,1.706712 1.98588,2.961059 3.835425,2.961059 2.19867,0 3.96875,-1.77008 3.96875,-3.96875 V 43.011845 42.515234 42.019141 30.608984 h 9.077999 2.331641 0.49661 L 55.5625,27.780733 H 55.065889 Z M 23.8125,55.561983 c 0,4.397293 1.770107,8.366087 4.63951,11.23549 l 2.828251,2.828251 c -0.472501,-0.472501 -0.911994,-0.977238 -1.321883,-1.506368 -2.07924,-2.684112 -3.317627,-6.055982 -3.317627,-9.729122 h 10.258289 10e-4 1.646411 L 35.71875,55.5625 v -5.17e-4 z" />
      <path
         id="path627"
         style="display:none;fill:#000000;fill-opacity:1;stroke:#000000;stroke-width:0.79375;stroke-linecap:butt;stroke-linejoin:round;stroke-dasharray:none;stroke-opacity:1;paint-order:markers fill stroke"
         d="m 39.6875,7.9369832 c -8.79453,0 -15.875,7.0804708 -15.875,15.8749998 v 15.875 11.90625 l 2.828251,2.828251 v -0.496093 -2.332158 -9.077999 -15.875 c 0,-8.794506 7.080594,-15.875 15.875,-15.875 3.673193,0 7.045052,1.238404 9.729122,3.317627 0.52913,0.409892 1.033863,0.849379 1.506368,1.321883 L 50.92299,12.576493 c 0.04303,0.04303 0.08206,0.08977 0.12454,0.133326 C 48.169369,9.7635849 44.150756,7.9369832 39.6875,7.9369832 Z M 43.523442,22.80481 c 0.08377,0.321921 0.132808,0.658312 0.132808,1.007173 l 2.828251,2.828251 c 0,-1.109913 -0.451747,-2.109372 -1.181323,-2.828251 -0.486237,-0.479106 -1.097176,-0.829479 -1.779736,-1.007173 z" />
      <g
         id="g685"
         transform="translate(-2.8285095,2.418e-4)">
        <path
           d="m 46.484259,30.609243 v 11.409639 5.17e-4 0.495577 0.49661 5.17e-4 15.378906 c 0,0.349039 -0.04896,0.685105 -0.132808,1.007174 -0.444338,1.706696 -1.98633,2.961576 -3.835942,2.961576 -1.849526,0 -3.39109,-1.254364 -3.835425,-2.961059 v -5.17e-4 c -0.08377,-0.321922 -0.133325,-0.65831 -0.133325,-1.007174 v -10e-4 h -5.17e-4 -1.646411 -5.16e-4 -7.175273 -3.083016 c 0,3.673102 1.238408,7.045036 3.317627,9.729122 v 5.16e-4 c 0.409815,0.529011 0.849479,1.033448 1.321883,1.505852 1.972742,1.972673 4.465048,3.426306 7.258988,4.141866 0.507989,0.130099 1.025739,0.235718 1.552361,0.315743 0.789929,0.12004 1.599664,0.181901 2.424141,0.181901 0.82449,0 1.633689,-0.06186 2.423625,-0.181901 0.526622,-0.08002 1.04437,-0.185643 1.55236,-0.315743 3.462924,-0.88688 6.459699,-2.909749 8.580871,-5.647718 2.079529,-2.684216 3.318144,-6.056225 3.318144,-9.729638 v -15.875 -11.905733 h -0.497127 -2.331641 -6.249231 z"
           style="display:inline;fill:#ffffff;stroke:#000000;stroke-width:0.79375;stroke-linejoin:round;paint-order:markers fill stroke"
           id="path682" />
        <path
           d="m 61.219277,27.780475 -2.828251,2.828251 v 11.90625 15.875 c 0,3.673435 -1.238602,7.045406 -3.318144,9.729638 -0.409771,0.528925 -0.849026,1.033512 -1.321366,1.505852 l 2.828251,-2.828251 c 2.869386,-2.869386 4.63951,-6.838212 4.63951,-11.23549 v -15.875 z"
           style="stroke:#000000;stroke-width:0.79375;stroke-linejoin:round;stroke-dasharray:none;stroke-opacity:1"
           id="path681" />
        <path
           d="m 49.313027,27.780475 -2.828251,2.828251 h 2.828251 6.249231 5.17e-4 2.331124 5.16e-4 0.496611 l 2.828251,-2.828251 h -0.49661 -2.331641 z"
           style="stroke:#000000;stroke-width:0.79375;stroke-linejoin:round;stroke-dasharray:none;stroke-opacity:1"
           id="path680" />
        <path
           d="m 41.375527,55.562241 -2.828768,2.828768 c 0,0.348866 0.04955,0.68525 0.133325,1.007174 v 5.17e-4 c 0.416567,1.600036 1.797854,2.802017 3.49281,2.946073 0.113,0.0096 0.227533,0.01447 0.343132,0.01447 0.137412,0 0.272957,-0.0067 0.406693,-0.02015 1.666409,-0.168225 3.017403,-1.360995 3.428732,-2.940906 -0.321991,0.08381 -0.658225,0.132808 -1.007174,0.132808 -1.849591,0 -3.391127,-1.254368 -3.835425,-2.961059 -0.0839,-0.322099 -0.133325,-0.658592 -0.133325,-1.007691 z"
           style="stroke:#000000;stroke-width:0.79375;stroke-linejoin:round;stroke-dasharray:none;stroke-opacity:1"
           id="path679" />
        <path
           d="m 29.469277,55.561725 -2.828251,2.828251 h 3.083016 7.175273 5.16e-4 5.17e-4 1.645894 5.17e-4 l 2.828251,-2.828251 h -1.646411 -0.001 z"
           style="stroke:#000000;stroke-width:0.79375;stroke-linejoin:round;stroke-dasharray:none;stroke-opacity:1"
           id="path678" />
        <path
           d="m 42.515509,10.764976 c -3.673415,0 -7.044862,1.239041 -9.729122,3.31866 -2.737899,2.121177 -4.760836,5.117515 -5.647717,8.580355 -0.1301,0.507988 -0.235718,1.025743 -0.315743,1.55236 -0.08003,0.52662 -0.134416,1.061922 -0.161747,1.604553 -0.01367,0.271313 -0.02015,0.544248 -0.02015,0.819072 v 15.875 9.077999 2.332674 0.495577 h 5.17e-4 0.49506 5.17e-4 11.409639 v -2.828251 -8.580872 -5.17e-4 -0.49661 -0.495577 -15.379423 c 0,-1.099328 0.44279,-2.091268 1.160136,-2.808614 0.489591,-0.489591 1.109121,-0.846566 1.801441,-1.026811 0.322068,-0.08385 0.658135,-0.133325 1.007173,-0.133325 h 0.001 c 0.174157,4.9e-5 0.345451,0.01285 0.513147,0.03566 0.168023,0.02285 0.332511,0.05577 0.49351,0.09767 0.128265,0.03339 0.251286,0.07873 0.374137,0.124023 0.04057,0.01495 0.08409,0.02513 0.124023,0.04134 0.482569,0.195962 0.916902,0.482482 1.281576,0.841809 l 5.17e-4,5.16e-4 c 0.182185,0.17958 0.347151,0.377182 0.491959,0.589112 0.434687,0.636323 0.688847,1.406356 0.688847,2.238623 h 11.90625 c 0,-0.96641 -0.08985,-1.910354 -0.253731,-2.828251 -0.581778,-3.258601 -2.147039,-6.1685 -4.385779,-8.407239 -0.47233,-0.47233 -0.977452,-0.912122 -1.506368,-1.321883 -2.683922,-2.079108 -6.055643,-3.31751 -9.728605,-3.317627 z"
           style="display:inline;fill:#ffffff;stroke:#000000;stroke-width:0.79375;stroke-linejoin:round"
           id="path685" />
        <path
           d="m 45.344277,7.9367246 c -4.397152,0 -8.366021,1.7700817 -11.23549,4.6395104 l -2.828251,2.828768 c 0.472293,-0.472291 0.976987,-0.911631 1.505851,-1.321367 2.081795,-1.612862 4.575936,-2.72145 7.305498,-3.136242 0.526619,-0.08003 1.061921,-0.134416 1.604553,-0.161748 0.271311,-0.01366 0.544249,-0.02067 0.819071,-0.02067 h 5.17e-4 c 3.672962,1.17e-4 7.044683,1.238519 9.728605,3.317627 l 5.17e-4,5.17e-4 c 0.528917,0.409762 1.03352,0.849035 1.505851,1.321366 1.972693,1.972693 3.42631,4.46554 4.141866,7.259505 0.09651,0.376805 0.174773,0.760494 0.243913,1.147734 0.02407,0.134807 0.05117,0.268641 0.07183,0.404626 0.120044,0.789933 0.182418,1.599152 0.182418,2.423625 l 2.828251,-2.828251 c 0,-4.397278 -1.770124,-8.366105 -4.63951,-11.23549 C 56.10727,12.103738 55.602495,11.664249 55.073399,11.254352 52.389323,9.1751803 49.017444,7.9367246 45.344277,7.9367246 Z"
           style="stroke:#000000;stroke-width:0.79375;stroke-linejoin:round;stroke-dasharray:none;stroke-opacity:1"
           id="path684" />
        <path
           d="m 41.508336,22.804551 c -1.706698,0.444337 -2.961577,1.985811 -2.961577,3.835425 v 15.378906 5.17e-4 0.495577 0.49661 5.17e-4 8.580872 2.828251 l 2.828768,-2.828251 v -11.40964 -0.49661 -0.496094 -15.378906 c 0,-0.349025 0.04896,-0.685109 0.132809,-1.007174 z"
           style="stroke:#000000;stroke-width:0.79375;stroke-linejoin:round;stroke-dasharray:none;stroke-opacity:1"
           id="path683" />
      </g>
    </g>
  </g>
</svg>
